<svg xmlns="http://www.w3.org/2000/svg" version="1.1" xmlns:xlink="http://www.w3.org/1999/xlink" width="256px" height="256px"><svg fill="#ffd700" width="256px" height="256px" viewBox="0 0 32.00 32.00" id="SvgjsSvg1013" xmlns="http://www.w3.org/2000/svg" stroke="#ffd700" stroke-width="0.00032">

<g id="SvgjsG1012" stroke-width="0"></g>

<g id="SvgjsG1011" stroke-linecap="round" stroke-linejoin="round" stroke="#CCCCCC" stroke-width="0.064"></g>

<g id="SvgjsG1010"> <defs> <style> .cls-1 { fill: none; } </style> </defs> <title>checkbox--checked--filled</title> <path d="M26,4H6A2,2,0,0,0,4,6V26a2,2,0,0,0,2,2H26a2,2,0,0,0,2-2V6A2,2,0,0,0,26,4ZM14,21.5,9,16.5427,10.5908,15,14,18.3456,21.4087,11l1.5918,1.5772Z" transform="translate(0 0)"></path> <path id="SvgjsPath1009" class="cls-1" d="M14,21.5,9,16.5427,10.5908,15,14,18.3456,21.4087,11l1.5918,1.5772Z" transform="translate(0 0)"></path> <rect id="SvgjsRect1008" data-name="&lt;Transparent Rectangle&gt;" class="cls-1" width="32" height="32"></rect> </g>

</svg><style>@media (prefers-color-scheme: light) { :root { filter: none; } }
@media (prefers-color-scheme: dark) { :root { filter: none; } }
</style></svg>